<svg xmlns="http://www.w3.org/2000/svg" version="1.1" xmlns:xlink="http://www.w3.org/1999/xlink" width="1000" height="1000"><metadata><rdf:RDF xmlns:rdf="http://www.w3.org/1999/02/22-rdf-syntax-ns#" xmlns:dc="http://purl.org/dc/elements/1.1/"><rdf:Description><dc:creator>RealFaviconGenerator</dc:creator><dc:source>https://realfavicongenerator.net</dc:source></rdf:Description></rdf:RDF></metadata><g clip-path="url(#SvgjsClipPath1165)"><rect width="1000" height="1000" fill="#000000"></rect><g transform="matrix(2,0,0,2,100,100)"><svg xmlns="http://www.w3.org/2000/svg" id="Ebene_1" viewBox="0 0 400 400" width="400" height="400"><defs><style>.cls-1{fill:#fff;}.cls-2{fill:none;}.cls-3{stroke:#1d1d1b;stroke-miterlimit:10;}</style><clipPath id="SvgjsClipPath1165"><rect width="1000" height="1000" x="0" y="0" rx="0" ry="0"></rect></clipPath></defs><rect class="cls-3" x="-8.56" width="417.11" height="400"></rect><rect class="cls-2" x="30.28" y="13.64" width="339.45" height="183.43"></rect><path class="cls-1" d="M160.79,180.84H54.01V20.89h40.18v129.44h66.6v30.51Z"></path><path class="cls-1" d="M275.09,180.84V51.39h-47.27v-30.51h134.71v30.51h-47.27v129.44h-40.18Z"></path><rect class="cls-2" x="17.6" y="211.02" width="364.81" height="184.38"></rect><path class="cls-1" d="M121.96,381.33c-23.99,0-43.04-7.25-57.15-21.75-14.11-14.5-21.16-34.89-21.16-61.18s7.07-45.56,21.22-60.64c14.14-15.07,33.21-22.61,57.2-22.61,6.37,0,12.1.36,17.19,1.07,5.08.72,9.95,1.72,14.61,3.01,3.65,1.07,7.63,2.54,11.92,4.4,4.3,1.86,7.77,3.47,10.42,4.83v38.13h-4.08c-1.93-1.72-4.37-3.78-7.3-6.18-2.94-2.4-6.27-4.74-9.99-7.04-3.72-2.29-7.83-4.24-12.3-5.85-4.48-1.61-9.15-2.42-14.02-2.42-5.8,0-11.12.91-15.95,2.74s-9.44,5-13.8,9.51c-4.01,4.08-7.29,9.6-9.83,16.54-2.54,6.95-3.81,15.15-3.81,24.6,0,9.96,1.32,18.32,3.97,25.08,2.65,6.77,6.12,12.23,10.42,16.38,4.15,4.01,8.79,6.91,13.91,8.7,5.12,1.79,10.22,2.69,15.31,2.69s10.35-.88,15.15-2.63c4.8-1.75,8.84-3.71,12.14-5.85,3.58-2.22,6.73-4.47,9.45-6.77,2.72-2.29,5.08-4.33,7.09-6.12h3.65v37.6c-2.94,1.36-6.34,2.92-10.21,4.67-3.87,1.76-7.84,3.24-11.92,4.46-5.01,1.5-9.71,2.65-14.07,3.44-4.37.79-10.38,1.18-18.05,1.18Z"></path><path class="cls-1" d="M276.1,378.22v-129.44h-47.27v-30.51h134.71v30.51h-47.27v129.44h-40.18Z"></path></svg></g></g></svg>